<svg height="512pt" viewBox="0 -32 512 512" width="512pt" xmlns="http://www.w3.org/2000/svg"><path d="m288 4h-64c-4.414062 0-8 3.585938-8 8v32h80v-32c0-4.414062-3.585938-8-8-8zm0 0" fill="#ffd740"/><path d="m112 300c0 79.527344 64.472656 144 144 144s144-64.472656 144-144c0-19.878906-4.0625-38.792969-11.359375-56h-265.28125c-7.296875 17.207031-11.359375 36.121094-11.359375 56zm0 0" fill="#ff5252"/><g fill="#263238"><path d="m320 104h-128c-6.617188 0-12-5.382812-12-12v-24c0-6.617188 5.382812-12 12-12h128c6.617188 0 12 5.382812 12 12v24c0 6.617188-5.382812 12-12 12zm-128-40c-2.207031 0-4 1.792969-4 4v24c0 2.207031 1.792969 4 4 4h128c2.199219 0 4-1.792969 4-4v-24c0-2.207031-1.800781-4-4-4zm0 0"/><path d="m256 448c-81.609375 0-148-66.390625-148-148 0-61.542969 38.464844-116.816406 96-138.425781v-61.574219c0-2.207031 1.792969-4 4-4h96c2.207031 0 4 1.792969 4 4v61.574219c57.535156 21.617187 96 76.882812 96 138.425781 0 81.609375-66.390625 148-148 148zm-44-344v60.367188c0 1.695312-1.0625 3.207031-2.664062 3.769531-55.832032 19.765625-93.335938 72.757812-93.335938 131.863281 0 77.191406 62.808594 140 140 140s140-62.808594 140-140c0-59.105469-37.503906-112.097656-93.335938-131.855469-1.59375-.558593-2.664062-2.074219-2.664062-3.769531v-60.375zm0 0"/><path d="m296 48c-2.207031 0-4-1.792969-4-4v-32c0-2.207031-1.800781-4-4-4h-64c-2.207031 0-4 1.792969-4 4v32c0 2.207031-1.792969 4-4 4s-4-1.792969-4-4v-32c0-6.617188 5.382812-12 12-12h64c6.617188 0 12 5.382812 12 12v32c0 2.207031-1.792969 4-4 4zm0 0"/><path d="m256 424c-2.207031 0-4-1.792969-4-4s1.792969-4 4-4c63.960938 0 116-52.039062 116-116 0-2.207031 1.792969-4 4-4s4 1.792969 4 4c0 68.375-55.625 124-124 124zm0 0"/><path d="m20 144h-16c-2.207031 0-4-1.792969-4-4s1.792969-4 4-4h16c2.207031 0 4 1.792969 4 4s-1.792969 4-4 4zm0 0"/><path d="m124 144h-88c-2.207031 0-4-1.792969-4-4s1.792969-4 4-4h88c2.207031 0 4 1.792969 4 4s-1.792969 4-4 4zm0 0"/><path d="m508 144h-16c-2.207031 0-4-1.792969-4-4s1.792969-4 4-4h16c2.207031 0 4 1.792969 4 4s-1.792969 4-4 4zm0 0"/><path d="m476 144h-88c-2.207031 0-4-1.792969-4-4s1.792969-4 4-4h88c2.207031 0 4 1.792969 4 4s-1.792969 4-4 4zm0 0"/><path d="m464 32h-32c-2.207031 0-4-1.792969-4-4s1.792969-4 4-4h32c2.207031 0 4 1.792969 4 4s-1.792969 4-4 4zm0 0"/><path d="m448 48c-2.207031 0-4-1.792969-4-4v-32c0-2.207031 1.792969-4 4-4s4 1.792969 4 4v32c0 2.207031-1.792969 4-4 4zm0 0"/><path d="m420 72h-32c-2.207031 0-4-1.792969-4-4s1.792969-4 4-4h32c2.207031 0 4 1.792969 4 4s-1.792969 4-4 4zm0 0"/><path d="m404 88c-2.207031 0-4-1.792969-4-4v-32c0-2.207031 1.792969-4 4-4s4 1.792969 4 4v32c0 2.207031-1.792969 4-4 4zm0 0"/></g></svg>