<svg height="511pt" viewBox="0 -74 511.998 511" width="511pt" xmlns="http://www.w3.org/2000/svg"><path d="m42.367188 111.699219c0-10.84375 2.421874-21.140625 6.730468-30.40625h-11.335937c-16.722657 0-30.40625 13.683593-30.40625 30.40625 0 16.71875 13.683593 30.402343 30.40625 30.402343h11.335937c-4.308594-9.261718-6.730468-19.5625-6.730468-30.402343zm0 0" fill="#60b8ff"/><path d="m28.023438 111.699219c0-13.179688 8.5-24.46875 20.289062-28.660157.253906-.585937.515625-1.167968.785156-1.746093h-11.335937c-16.722657 0-30.40625 13.683593-30.40625 30.40625 0 16.722656 13.683593 30.40625 30.40625 30.40625h11.335937c-.269531-.578125-.53125-1.164063-.785156-1.75-11.789062-4.191407-20.289062-15.476563-20.289062-28.65625zm0 0" fill="#22a7ff"/><path d="m222.761719 182.355469h-50.320313l-10.0625 44.3125h36.988282c17.566406 0 30.332031-16.6875 25.742187-33.640625zm0 0" fill="#4f66d1"/><path d="m172.441406 182.355469-10.0625 44.3125h20.667969l10.0625-44.3125zm0 0" fill="#314dca"/><path d="m146 327.210938c-2.167969-6.074219-2.527344-12.644532-1.035156-18.917969l29.476562-125.9375h-61.414062c-11.28125 0-21.984375-2.609375-31.535156-7.246094l-20.589844 163.550781c-1.167969 9.164063 5.972656 17.273438 15.210937 17.273438h58.386719c10.605469 0 18.007812-10.507813 14.441406-20.492188zm0 0" fill="#6c7fd9"/><path d="m81.570312 338.660156 19.792969-157.253906c-7.003906-1.140625-13.679687-3.289062-19.875-6.296875l-20.585937 163.550781c-1.167969 9.164063 5.976562 17.273438 15.210937 17.273438h20.667969c-9.238281 0-16.378906-8.109375-15.210938-17.273438zm0 0" fill="#4f66d1"/><path d="m303.839844 39.039062h-190.8125c-39.964844 0-72.660156 32.695313-72.660156 72.660157 0 39.960937 32.695312 72.660156 72.660156 72.660156h190.8125zm0 0" fill="#ffd500"/><path d="m41.984375 96.53125c-1.050781 4.894531-1.617187 9.96875-1.617187 15.167969 0 39.960937 32.695312 72.65625 72.660156 72.65625h190.8125v-30.332031h-190.8125c-34.765625 0-64.015625-24.75-71.042969-57.492188zm0 0" fill="#fbc700"/><path d="m303.839844 39.039062h-157.445313c-17.390625 0-31.621093 14.230469-31.621093 31.621094s14.226562 31.621094 31.621093 31.621094h157.445313zm0 0" fill="#fbc700"/><path d="m118.679688 55.492188c-2.488282 4.511718-3.90625 9.679687-3.90625 15.167968 0 17.390625 14.230468 31.621094 31.621093 31.621094h157.449219v-30.335938h-157.449219c-11.90625 0-22.324219-6.667968-27.714843-16.453124zm0 0" fill="#e9b900"/><path d="m504.355469 111.699219c0 11.34375-9.195313 20.539062-20.542969 20.539062-11.34375 0-20.539062-9.195312-20.539062-20.539062s9.195312-20.542969 20.539062-20.542969c11.347656 0 20.542969 9.199219 20.542969 20.542969zm0 0" fill="#60b8ff"/><path d="m483.941406 111.699219c0-7.574219 4.109375-14.171875 10.207032-17.734375-3.039063-1.773438-6.5625-2.808594-10.335938-2.808594-11.34375 0-20.539062 9.199219-20.539062 20.542969s9.195312 20.539062 20.539062 20.539062c3.773438 0 7.296875-1.035156 10.335938-2.808593-6.097657-3.5625-10.207032-10.160157-10.207032-17.730469zm0 0" fill="#22a7ff"/><path d="m322.210938 26.941406h-8.886719c-6.316407 0-11.484375 5.164063-11.484375 11.480469v146.554687c0 6.3125 5.167968 11.480469 11.484375 11.480469h8.886719c6.316406 0 11.480468-5.167969 11.480468-11.480469v-146.554687c0-6.316406-5.164062-11.480469-11.480468-11.480469zm0 0" fill="#ffe55a"/><path d="m322.507812 184.976562v-146.554687c0-4.164063 2.253907-7.816406 5.59375-9.832031-1.726562-1.039063-3.738281-1.648438-5.890624-1.648438h-8.886719c-6.316407 0-11.480469 5.164063-11.480469 11.480469v146.554687c0 6.3125 5.164062 11.480469 11.480469 11.480469h8.886719c2.152343 0 4.164062-.609375 5.890624-1.652343-3.339843-2.015626-5.59375-5.667969-5.59375-9.828126zm0 0" fill="#fbc700"/><path d="m483.960938 83.949219c-12.867188 0-23.726563 8.707031-27.015626 20.539062h-15.902343v-44.492187c0-4.144532-3.359375-7.5-7.5-7.5-4.144531 0-7.503907 3.355468-7.503907 7.5v44.492187h-19.910156v-71.257812c0-4.144531-3.359375-7.5-7.5-7.5-4.144531 0-7.5 3.355469-7.5 7.5v71.257812h-19.914062v-96.488281c0-4.144531-3.355469-7.5-7.5-7.5-4.144532 0-7.5 3.355469-7.5 7.5v96.488281h-14.875v-65.777343c0-10.464844-8.515625-18.980469-18.984375-18.980469h-6.886719c-8.039062 0-14.90625 5.027343-17.667969 12.097656h-84.9375c-4.144531 0-7.5 3.359375-7.5 7.503906 0 4.140625 3.355469 7.5 7.5 7.5h83.625v48.238281h-149.949219c-13.300781 0-24.121093-10.816406-24.121093-24.117187s10.820312-24.121094 24.121093-24.121094h31.320313c4.140625 0 7.5-3.359375 7.5-7.5 0-4.144531-3.359375-7.503906-7.5-7.503906h-64.6875c-30.496094 0-57.066406 17.125-70.609375 42.257813h-4.65625c-20.902344-.003907-37.90625 17-37.90625 37.902343 0 20.902344 17.003906 37.90625 37.90625 37.90625h4.65625c7.144531 13.253907 17.917969 24.265625 30.972656 31.726563l-19.925781 156.378906c-1.742187 13.644531 8.90625 25.722656 22.648437 25.722656h58.386719c15.769531 0 26.8125-15.660156 21.503907-30.515625l-2.9375-8.226562c-1.6875-4.71875-1.960938-9.789063-.804688-14.660157l3.988281-16.777343c.960938-4.03125-1.53125-8.074219-5.558593-9.03125-4.035157-.960938-8.074219 1.53125-9.035157 5.5625l-3.988281 16.773437c-1.832031 7.703125-1.394531 15.71875 1.269531 23.175782l2.941407 8.230468c1.820312 5.101563-1.945313 10.46875-7.378907 10.46875h-58.386719c-4.722656 0-8.367187-4.128906-7.769531-8.824218l19.355469-151.867188c8.359375 2.816406 17.152344 4.117188 25.328125 4.117188h51.921875c-1.609375 6.765624-13.257812 55.738281-14.964844 62.921874-.957031 4.03125 1.53125 8.074219 5.5625 9.03125 4.027344.960938 8.074219-1.53125 9.03125-5.5625l5.726563-24.082031h29.0625c22.167969 0 38.476562-20.757812 33.171875-42.308593h65.113281c2.761719 7.070312 9.632813 12.101562 17.671875 12.101562h6.886719c10.464843 0 18.980469-8.515625 18.980469-18.984375v-65.773437h14.875v96.488281c0 4.140625 3.359374 7.5 7.503906 7.5 4.140625 0 7.5-3.359375 7.5-7.5v-96.488281h19.910156v71.257812c0 4.144531 3.359375 7.5 7.5 7.5 4.144531 0 7.5-3.355469 7.5-7.5v-71.257812h19.914062v44.492187c0 4.144531 3.355469 7.5 7.5 7.5 4.144532 0 7.5-3.355469 7.5-7.5v-44.492187h15.90625c3.289063 11.828124 14.148438 20.539062 27.011719 20.539062 15.460938 0 28.039063-12.578125 28.039063-28.039062 0-15.464844-12.574219-28.042969-28.035156-28.042969zm-468.960938 28.039062c0-12.105469 9.445312-22.050781 21.347656-22.851562-4.511718 15.148437-4.363281 31.058593 0 45.703125-11.902344-.800782-21.347656-10.746094-21.347656-22.851563zm33.015625 0c0-35.484375 28.855469-65.160156 65.15625-65.160156h2.601563c-20.140626 25.636719-1.707032 63.242187 30.765624 63.242187h149.945313v67.078126c-8.214844 0-174.824219 0-183.3125 0-35.796875 0-65.15625-29.167969-65.15625-65.160157zm166.71875 99.949219c-3.65625 4.777344-9.203125 7.519531-15.222656 7.519531h-25.492188l6.492188-27.308593h36.652343c.882813 3.257812 3.941407 11.460937-2.429687 19.789062zm111.601563-26.671875c0 2.15625-1.824219 3.980469-3.980469 3.980469h-6.886719c-2.15625 0-3.980469-1.824219-3.980469-3.980469v-.617187c0-7.335938 0-138.230469 0-145.320313v-.617187c0-2.15625 1.824219-3.980469 3.980469-3.980469h6.886719c2.15625 0 3.980469 1.824219 3.980469 3.980469zm157.625-60.238281c-7.191407 0-13.042969-5.847656-13.042969-13.039063 0-7.1875 5.851562-13.039062 13.042969-13.039062 7.1875 0 13.039062 5.851562 13.039062 13.039062 0 7.191407-5.851562 13.039063-13.039062 13.039063zm0 0"/><path d="m266.382812 162.21875c4.140626 0 7.5-3.355469 7.5-7.5v-24.734375c0-4.140625-3.359374-7.5-7.5-7.5-4.144531 0-7.5 3.359375-7.5 7.5v24.734375c0 4.140625 3.355469 7.5 7.5 7.5zm0 0"/><path d="m239.472656 160.949219c4.140625 0 7.5-3.355469 7.5-7.5v-24.734375c0-4.140625-3.359375-7.5-7.5-7.5-4.144531 0-7.5 3.359375-7.5 7.5v24.734375c0 4.144531 3.355469 7.5 7.5 7.5zm0 0"/><path d="m212.5625 159.679688c4.140625 0 7.5-3.355469 7.5-7.5v-24.730469c0-4.144531-3.359375-7.5-7.5-7.5-4.144531 0-7.503906 3.355469-7.503906 7.5v24.730469c0 4.144531 3.359375 7.5 7.503906 7.5zm0 0"/></svg>