<svg height="512" viewBox="0 0 60 60" width="512" xmlns="http://www.w3.org/2000/svg"><g id="Page-1" fill="none" fill-rule="evenodd"><g id="070---Magic-Septre" fill-rule="nonzero"><path id="Shape" d="m58.92 18.55c-.8417527 2.774025-2.5263966 5.2171082-4.82 6.99-.0487597.0486772-.1023722.0922374-.16.13-4.6963338 3.4654134-11.0385567 3.6917795-15.97.57-1.6991548-1.0725372-3.1374628-2.5108452-4.21-4.21-3.1217795-4.9314433-2.8954134-11.2736662.57-15.97.0377626-.05762778.0813228-.11124032.13-.16 1.7728918-2.29360342 4.215975-3.97824733 6.99-4.82.339905-.11291282.7121497.03097197.8877459.34314295.1755961.31217097.1052579.70500867-.1677459.93685705-.5853903.48195629-1.1244058 1.01762383-1.61 1.6-1.9807199 2.45046234-2.814616 5.63310524-2.29 8.74.686976 4.6731557 4.3568443 8.343024 9.03 9.03 3.1068948.524616 6.2895377-.3092801 8.74-2.29.5823762-.4855942 1.1180437-1.0246097 1.6-1.61.2318484-.2730038.6246861-.343342.9368571-.1677459.3121709.1755962.4560557.5478409.3431429.8877459z" fill="#ffd300"/><path id="Shape" d="m39.17 2.36c-.5853903.48195629-1.1244058 1.01762383-1.61 1.6-1.9807199 2.45046234-2.814616 5.63310524-2.29 8.74.686976 4.6731557 4.3568443 8.343024 9.03 9.03 1.1058544.1757739 2.231524.1882402 3.341.037-.114-.015-.228-.019-.341-.037-4.6731557-.686976-8.343024-4.3568443-9.03-9.03-.524616-3.10689476.3092801-6.28953766 2.29-8.74.4855942-.58237617 1.0246097-1.11804371 1.61-1.6.2730038-.23184838.343342-.62468608.1677459-.93685705-.1755962-.31217098-.5478409-.45605577-.8877459-.34314295-.6903038.20905923-1.3630541.4722076-2.012.787-.0166761.19451555-.1138268.37322929-.268.493z" fill="#f5b808"/><path id="Shape" d="m57.64 17.83c-.4819563.5853903-1.0176238 1.1244058-1.6 1.61-.2.162-.405.3-.611.449-.9312927 2.2256046-2.4226263 4.1723651-4.329 5.651-.0487597.0486772-.1023722.0922374-.16.13-1.9889899 1.4986538-4.3496626 2.425357-6.827 2.68 3.4969401.3844111 7.0093779-.573494 9.827-2.68.0576278-.0377626.1112403-.0813228.16-.13 2.2936034-1.7728918 3.9782473-4.215975 4.82-6.99.1129128-.339905-.030972-.7121497-.3431429-.8877459-.312171-.1755961-.7050087-.1052579-.9368571.1677459z" fill="#f5b808"/><path id="Shape" d="m49.77 20.13c-.6997589.7034387-1.5419491 1.248987-2.47 1.6-4.6731557-.686976-8.343024-4.3568443-9.03-9.03 1.0144906-2.6687099 3.548063-4.45387782 6.4025179-4.51124644 2.8544549-.05736863 5.4577087 1.62455968 6.5786078 4.25035274 1.1208992 2.625793.5347955 5.669195-1.4811257 7.6908937z" fill="#e01e63"/><path id="Shape" d="m50.69 11.36c-1.5802478-2.43443349-4.5044692-3.63376671-7.339-3.01 2.8171083.62128602 4.9627532 2.9100371 5.401109 5.7613421.4383557 2.8513049-.9207142 5.6788662-3.421109 7.1176579.639924.2256644 1.2989397.3930122 1.969.5 1.9803064-.7531765 3.5138853-2.3613624 4.1722139-4.3751876.6583285-2.0138251.3708105-4.2173358-.7822139-5.9948124z" fill="#a41457"/><path id="Shape" d="m58.99 5.87-.46 3.79c-.0250206.21447829-.1198964.4147716-.27.57l-8.49-8.49c.1552284-.15010363.3555217-.24497939.57-.27l3.79-.46c.3204363-.03662716.6402449.07365169.87.3l3.69 3.69c.2263483.22975507.3366272.54956373.3.87z" fill="#02a0eb"/><path id="Shape" d="m58.26 10.23c-.1552177.1559039-.3607746.2515941-.58.27l-6.99.86c-.5361731-.816154-1.233846-1.51382688-2.05-2.05l.86-6.99c.0184059-.21922542.1140961-.42478225.27-.58z" fill="#0377b3"/><path id="Shape" d="m37.97 26.24-3.77 3.77-4.21-4.21 3.77-3.77c1.0725372 1.6991548 2.5108452 3.1374628 4.21 4.21z" fill="#ececec"/><path id="Rectangle-path" d="m7.539 35.103h28.772v5.954h-28.772z" fill="#97522d" transform="matrix(.707 -.707 .707 .707 -20.508 26.667)"/><path id="Rectangle-path" d="m7.229 47.153h5.303v5.954h-5.303z" fill="#ececec" transform="matrix(.707 -.707 .707 .707 -32.554 21.669)"/><path id="Shape" d="m10.11 54.11-4.31 4.3c-.37328148.3790282-.88302121.5924538-1.415.5924538s-1.04171852-.2134256-1.415-.5924538l-1.38-1.38c-.37902819-.3732815-.5924538-.8830212-.5924538-1.415s.21342561-1.0417185.5924538-1.415l4.31-4.3z" fill="#97522d"/><path id="Shape" d="m34.22 30.03-.02-.02" fill="#ffd300"/><path id="Shape" d="m29.99 25.8-.02-.02" fill="#ffd300"/><path id="Shape" d="m46.942 14.058c-.2651948-.0000566-.5195073-.1054506-.707-.293-.7809997-.7807639-2.0470003-.7807639-2.828 0-.3923789.3789722-1.0160848.3735524-1.4018186-.0121814s-.3911536-1.0094397-.0121814-1.4018186c1.5619994-1.5615278 4.0940006-1.5615278 5.656 0 .2859079.2859943.3714219.7160366.216678 1.0896546-.1547439.3736179-.5192821.6172591-.923678.6173454z" fill="#ececec"/><path id="Shape" d="m0 55.613c-.00233436.797464.31709881 1.5621568.886 2.121l1.375 1.375c.55948034.5715978 1.32616333.8929123 2.126.891.79774292.0022636 1.56271966-.3171376 2.122-.886l4.28-4.28c.009-.008.021-.011.029-.02s.011-.02.02-.029l3.7-3.7c.009-.008.021-.011.029-.02s.011-.02.02-.029l23.555-23.554c2.2826609 1.2637579 4.8488576 1.9271565 7.458 1.928 3.2237919.0199134 6.3657106-1.0146337 8.947-2.946l.084-.066.086-.066c2.4538312-1.9036015 4.2578227-4.520507 5.164-7.491.255054-.8122307-.1096091-1.6903732-.865-2.083-.7321559-.3948594-1.6420768-.2077335-2.159.444-.4330543.5362635-.9188204 1.0277248-1.45 1.467-1.3974598 1.1418114-3.0857346 1.8711461-4.875 2.106 2.2316107-2.2704992 2.9026043-5.6490386 1.708-8.6l5.568-.681c.9025848-.1041036 1.6139982-.8171752 1.716-1.72l.458-3.77c.079807-.62742499-.1350493-1.25648875-.582-1.704l-3.7-3.695c-.4456385-.44779102-1.0728484-.6651008-1.7-.589l-3.78.461c-.9038245.10147723-1.6174713.81429414-1.72 1.718l-.678 5.565c-2.9506236-1.19457208-6.3288024-.52443568-8.6 1.706.2342012-1.78865988.9632478-3.47637681 2.105-4.873.4411641-.53147776.9346458-1.017254 1.473-1.45.6517772-.51702579.8381604-1.42743582.442-2.159-.3925478-.75491928-1.2700725-1.11950086-2.082-.865-2.9717609.90634134-5.589764 2.7110656-7.494 5.166l-.064.084-.066.084c-3.5211593 4.8005785-3.9227177 11.2126231-1.028 16.415l-31.618 31.617c-.57086498.5607173-.89169274 1.3278201-.89 2.128zm9.647-8.056 2.8 2.795-2.336 2.336-2.795-2.8zm4.21 1.381-2.8-2.8 18.932-18.923 2.8 2.8zm26.049-30.259-4.242 4.243c-1.6290538-1.9382048-2.658918-4.3085604-2.964-6.822l5.474-.235c.4403261 1.0157226 1.0235558 1.9633025 1.732 2.814zm1.415 1.415c.8516782.7101772 1.8006373 1.2947738 2.818 1.736l-.239 5.47c-2.5154118-.304289-4.8875364-1.3353605-6.826-2.967zm9.679 2.616 1.6 2.666c-2.0014805 1.2866193-4.321077 1.9918459-6.7 2.037l.211-4.92c1.5997823.3914426 3.2608283.4651687 4.889.217zm5.681-2.5c.3-.252.595-.519.873-.8-.7539769 1.8065177-1.9059255 3.4195875-3.37 4.719l-1.148-1.915c1.3286891-.4377447 2.5650958-1.1171412 3.647-2.004zm-2.392-18.19 3.711 3.732-.291 2.514-2.986-2.984-2.97-2.969zm-3.973 1.68 2.284 2.287-.706.706c-.2599566.25107447-.3642126.62287789-.2726972.97250732.0915155.34962944.3645604.6226744.7141899.71418984.3496294.09151544.7214328-.01274058.9725073-.27269716l.706-.706 2.269 2.268-5.133.631c-.2075639-.2721392-.4320052-.53098148-.672-.775-.2444715-.24057779-.5039952-.46536477-.777-.673zm-5.5 5.473c2.4272543-.00029091 4.6155815 1.4618717 5.5442266 3.7044554s.4146513 4.8237667-1.3022266 6.5395446c-.5406417.5405363-1.1811834.9708472-1.886 1.267-1.9590298-.3500717-3.7664411-1.2842784-5.185-2.68-1.3957216-1.4185589-2.3299283-3.2259702-2.68-5.185.2961528-.7048166.7264637-1.3453583 1.267-1.886 1.124122-1.12935934 2.653554-1.76173103 4.247-1.756zm-4.23-6.729c-.277.278-.544.569-.8.873-.8877827 1.08097361-1.568816 2.31625751-2.009 3.644l-1.91-1.147c1.2997594-1.46368888 2.9127346-2.61556989 4.719-3.37zm-5.962 4.956 2.666 1.6c-.248301 1.6284982-.1745743 3.289897.217 4.89l-4.921.211c.0442716-2.3795194.749935-4.69976015 2.038-6.701zm.3 17.677c.4714987.464459.975074.895188 1.507 1.289l-2.231 2.234-2.8-2.8 2.23-2.23c.3950933.5320601.8271618 1.0356388 1.293 1.507zm-32.624 29.823 3.6-3.6 2.8 2.795-3.6 3.6c-.18334618.1902822-.43576382.2984612-.7.3-.26662081.0001246-.52183159-.1081685-.707-.3l-1.393-1.38c-.18863417-.184054-.29500096-.4364498-.295-.7-.00280457-.2684974.1036831-.5265946.295-.715z" fill="#000"/></g></g></svg>