<?xml version="1.0" encoding="utf-8"?><svg xmlns="http://www.w3.org/2000/svg" xmlns:xlink="http://www.w3.org/1999/xlink" width="76" height="76" preserveAspectRatio="xMidYMid" viewBox="0 0 76 76" style="display:block;background-repeat-y:initial;background-repeat-x:initial;background-color:rgb(255, 255, 255);animation-play-state:paused" ><g transform="scale(0.30000000000000004)" style="transform:matrix(0.3, 0, 0, 0.3, 0, 0);animation-play-state:paused" ><path d="M -256 19.066666666666666 C -192 19.066666666666666 -192 2 -128 2 C -64 2 -64 19.066666666666666 2 19.066666666666666 C 64 19.066666666666666 64 2 128 2 C 192 2 192 19.066666666666666 256 19.066666666666666 L 384 384 L -384 384 L -384 19.066666666666666 Z" fill="#0077ff" stroke="#0077ff" stroke-width="1" transform="matrix(1,0,0,1,256,-85.33333587646484)" style="transform:matrix(1, 0, 0, 1, 256, -85.3333);animation-play-state:paused" ></path>
<path d="M -256 19.066666666666666 C -192 19.066666666666666 -192 2 -128 2 C -64 2 -64 19.066666666666666 2 19.066666666666666 C 64 19.066666666666666 64 2 128 2 C 192 2 192 19.066666666666666 256 19.066666666666666 L 384 384 L -384 384 L -384 19.066666666666666 Z" fill="#0099f8" stroke="#0099f8" stroke-width="1" transform="matrix(1,0,0,1,52.13534927368164,0)" style="transform:matrix(1, 0, 0, 1, 52.1353, 0);animation-play-state:paused" ></path>
<path d="M -256 19.066666666666666 C -192 19.066666666666666 -192 2 -128 2 C -64 2 -64 19.066666666666666 2 19.066666666666666 C 64 19.066666666666666 64 2 128 2 C 192 2 192 19.066666666666666 256 19.066666666666666 L 384 384 L -384 384 L -384 19.066666666666666 Z" fill="#35beed" stroke="#35beed" stroke-width="1" transform="matrix(1,0,0,1,52.13545227050781,85.33333587646484)" style="transform:matrix(1, 0, 0, 1, 52.1355, 85.3333);animation-play-state:paused" ></path>
<path d="M -256 19.066666666666666 C -192 19.066666666666666 -192 2 -128 2 C -64 2 -64 19.066666666666666 2 19.066666666666666 C 64 19.066666666666666 64 2 128 2 C 192 2 192 19.066666666666666 256 19.066666666666666 L 384 384 L -384 384 L -384 19.066666666666666 Z" fill="#0077ff" stroke="#0077ff" stroke-width="1" transform="matrix(1,0,0,1,0,170.6666717529297)" style="transform:matrix(1, 0, 0, 1, 0, 170.667);animation-play-state:paused" ></path></g></svg>